<?xml version="1.0" encoding="UTF-8" standalone="no"?><!DOCTYPE svg PUBLIC "-//W3C//DTD SVG 1.1//EN" "http://www.w3.org/Graphics/SVG/1.1/DTD/svg11.dtd"><!-- Generated by graphviz version 2.40.1 (20161225.0304)
 --><!-- Title: G Pages: 1 --><svg xmlns="http://www.w3.org/2000/svg" xmlns:xlink="http://www.w3.org/1999/xlink" width="162pt" height="544pt" viewBox="0.00 0.00 162.00 544.40">
<g id="graph0" class="graph" transform="scale(1 1) rotate(0) translate(4 540.4)">
<title>G</title>
<polygon fill="#ffffff" stroke="transparent" points="-4,4 -4,-540.4 158,-540.4 158,4 -4,4"/>
<g id="clust1" class="cluster">
<title>cluster_main</title>
<polygon fill="none" stroke="#000000" stroke-dasharray="5,2" points="8,-8 8,-528.4 146,-528.4 146,-8 8,-8"/>
<text text-anchor="middle" x="77" y="-511.8" font-family="Times,serif" font-size="14.00" fill="#000000">main ()</text>
</g>
<!-- fn_0_basic_block_0 -->
<g id="node1" class="node">
<title>fn_0_basic_block_0</title>
<polygon fill="#ffffff" stroke="#000000" points="77,-495.6 15.76,-477.6 77,-459.6 138.24,-477.6 77,-495.6"/>
<polyline fill="none" stroke="#000000" points="27.273,-480.984 27.273,-474.216 "/>
<polyline fill="none" stroke="#000000" points="65.487,-462.984 88.513,-462.984 "/>
<polyline fill="none" stroke="#000000" points="126.727,-474.216 126.727,-480.984 "/>
<polyline fill="none" stroke="#000000" points="88.513,-492.216 65.487,-492.216 "/>
<text text-anchor="middle" x="77" y="-473.4" font-family="Times,serif" font-size="14.00" fill="#000000">ENTRY</text>
</g>
<!-- fn_0_basic_block_1 -->
<g id="node2" class="node">
<title>fn_0_basic_block_1</title>
<polygon fill="#ffffff" stroke="#000000" points="79,-52 32.1002,-34 79,-16 125.8998,-34 79,-52"/>
<polyline fill="none" stroke="#000000" points="43.3034,-38.2998 43.3034,-29.7002 "/>
<polyline fill="none" stroke="#000000" points="67.7968,-20.2998 90.2032,-20.2998 "/>
<polyline fill="none" stroke="#000000" points="114.6966,-29.7002 114.6966,-38.2998 "/>
<polyline fill="none" stroke="#000000" points="90.2032,-47.7002 67.7968,-47.7002 "/>
<text text-anchor="middle" x="79" y="-29.8" font-family="Times,serif" font-size="14.00" fill="#000000">EXIT</text>
</g>
<!-- fn_0_basic_block_0&#45;&gt;fn_0_basic_block_1 -->
<!-- fn_0_basic_block_2 -->
<g id="node3" class="node">
<title>fn_0_basic_block_2</title>
<polygon fill="#d3d3d3" stroke="#000000" points="36.4725,-199.9 36.4725,-423.1 121.5275,-423.1 121.5275,-199.9 36.4725,-199.9"/>
<text text-anchor="start" x="44.4725" y="-406.5" font-family="Times,serif" font-size="14.00" fill="#000000">&lt;bb 2&gt;:</text>
<polyline fill="none" stroke="#000000" points="36.4725,-398.3 121.5275,-398.3 "/>
<text text-anchor="start" x="44.4725" y="-381.7" font-family="Times,serif" font-size="14.00" fill="#000000">p = 6;</text>
<polyline fill="none" stroke="#000000" points="36.4725,-373.5 121.5275,-373.5 "/>
<text text-anchor="start" x="44.4725" y="-356.9" font-family="Times,serif" font-size="14.00" fill="#000000">a = 10;</text>
<polyline fill="none" stroke="#000000" points="36.4725,-348.7 121.5275,-348.7 "/>
<text text-anchor="start" x="44.4725" y="-332.1" font-family="Times,serif" font-size="14.00" fill="#000000">b = 20;</text>
<polyline fill="none" stroke="#000000" points="36.4725,-323.9 121.5275,-323.9 "/>
<text text-anchor="start" x="44.4725" y="-307.3" font-family="Times,serif" font-size="14.00" fill="#000000">_1 = a * b;</text>
<polyline fill="none" stroke="#000000" points="36.4725,-299.1 121.5275,-299.1 "/>
<text text-anchor="start" x="44.4725" y="-282.5" font-family="Times,serif" font-size="14.00" fill="#000000">c = _1 + 25;</text>
<polyline fill="none" stroke="#000000" points="36.4725,-274.3 121.5275,-274.3 "/>
<text text-anchor="start" x="44.4725" y="-257.7" font-family="Times,serif" font-size="14.00" fill="#000000">p = 6;</text>
<polyline fill="none" stroke="#000000" points="36.4725,-249.5 121.5275,-249.5 "/>
<text text-anchor="start" x="44.4725" y="-232.9" font-family="Times,serif" font-size="14.00" fill="#000000">q = Z;</text>
<polyline fill="none" stroke="#000000" points="36.4725,-224.7 121.5275,-224.7 "/>
<text text-anchor="start" x="44.4725" y="-208.1" font-family="Times,serif" font-size="14.00" fill="#000000">r = 3.45e+1;</text>
</g>
<!-- fn_0_basic_block_0&#45;&gt;fn_0_basic_block_2 -->
<g id="edge1" class="edge">
<title>fn_0_basic_block_0:s-&gt;fn_0_basic_block_2:n</title>
<path fill="none" stroke="#0000ff" stroke-width="2" d="M77,-459.6C77,-447.5482 78.125,-442.3067 78.6875,-433.66"/>
<polygon fill="#0000ff" stroke="#0000ff" stroke-width="2" points="82.1908,-433.6029 79,-423.5 75.1941,-433.3876 82.1908,-433.6029"/>
</g>
<!-- fn_0_basic_block_3 -->
<g id="node4" class="node">
<title>fn_0_basic_block_3</title>
<polygon fill="#d3d3d3" stroke="#000000" points="48.9101,-88.5 48.9101,-162.9 109.0899,-162.9 109.0899,-88.5 48.9101,-88.5"/>
<text text-anchor="start" x="56.9101" y="-146.3" font-family="Times,serif" font-size="14.00" fill="#000000">&lt;bb 3&gt;:</text>
<polyline fill="none" stroke="#000000" points="48.9101,-138.1 109.0899,-138.1 "/>
<text text-anchor="start" x="56.9101" y="-121.5" font-family="Times,serif" font-size="14.00" fill="#000000">&lt;L0&gt;:</text>
<polyline fill="none" stroke="#000000" points="48.9101,-113.3 109.0899,-113.3 "/>
<text text-anchor="start" x="56.9101" y="-96.7" font-family="Times,serif" font-size="14.00" fill="#000000">return;</text>
</g>
<!-- fn_0_basic_block_2&#45;&gt;fn_0_basic_block_3 -->
<g id="edge2" class="edge">
<title>fn_0_basic_block_2:s-&gt;fn_0_basic_block_3:n</title>
<path fill="none" stroke="#0000ff" stroke-width="2" d="M79,-199.5C79,-187.1056 79,-181.7556 79,-172.7733"/>
<polygon fill="#0000ff" stroke="#0000ff" stroke-width="2" points="82.5001,-172.7 79,-162.7 75.5001,-172.7 82.5001,-172.7"/>
</g>
<!-- fn_0_basic_block_3&#45;&gt;fn_0_basic_block_1 -->
<g id="edge3" class="edge">
<title>fn_0_basic_block_3:s-&gt;fn_0_basic_block_1:n</title>
<path fill="none" stroke="#000000" stroke-width="2" d="M79,-88.7C79,-76.3392 79,-71.0038 79,-62.046"/>
<polygon fill="#000000" stroke="#000000" stroke-width="2" points="82.5001,-62 79,-52 75.5001,-62 82.5001,-62"/>
</g>
</g>
</svg>